<svg fill="#1296db" t="1665772126755" class="icon" viewBox="0 0 1459 1024" version="1.1" xmlns="http://www.w3.org/2000/svg" p-id="7644" width="200" height="200"><path d="M1392.286348 434.424242C1374.80974 317.288076 1302.143814 248.242424 1192.201278 248.242424L990.779671 248.242424 991.50969 434.424242 1392.286348 434.424242ZM1396.363636 496.484848 1396.363636 806.787879 1312.240423 806.787879C1291.894815 749.890777 1239.535988 713.69697 1179.151515 713.69697 1118.767042 713.69697 1061.989345 749.890777 1043.67827 806.787879L992.969697 806.787879 991.75303 496.484848 1396.363636 496.484848ZM174.920487 868.848485C178.989615 876.033583 183.058742 876.033583 187.127839 868.848485 197.300658 943.174128 256.302949 996.072727 327.512592 996.072727 398.722265 996.072727 457.724556 943.174128 467.897344 868.848485 469.931908 876.033583 471.966472 876.033583 476.0356 868.848485L1037.574609 868.848485C1047.747398 943.174128 1106.749688 996.072727 1177.959362 996.072727 1249.169005 996.072727 1308.171295 943.174128 1318.344114 868.848485L1396.575294 868.848454C1430.733514 868.848454 1458.424242 841.138859 1458.424242 806.621805L1458.424242 492.01332C1458.424242 389.83891 1438.383228 315.00648 1385.484629 258.038753 1353.207715 223.07207 1269.772164 186.181818 1269.772164 186.181818L1024.184382 186.181818C1006.945001 186.181818 992.969697 172.187927 992.969697 155.437677L992.969697 124.185972C992.969697 55.599942 937.455616 0 868.716358 0L124.253339 0C55.630103 0 0 55.672087 0 124.023125L0 744.825328C0 813.321402 55.345928 868.848454 124.326229 868.848485L174.920487 868.848485ZM1177.959362 924.863085C1137.268115 924.863085 1104.715124 892.310094 1104.715124 851.618847 1104.715124 810.927632 1137.268115 778.37464 1177.959362 778.37464 1218.650577 778.37464 1251.203568 810.927632 1251.203568 851.618847 1251.203568 892.310094 1218.650577 924.863085 1177.959362 924.863085ZM329.547155 924.863085C288.85594 924.863085 256.302949 892.310094 256.302949 851.618847 256.302949 810.927632 288.85594 778.37464 329.547155 778.37464 370.238402 778.37464 402.791393 810.927632 402.791393 851.618847 402.791393 892.310094 368.203838 924.863085 329.547155 924.863085ZM869.120186 62.060606C903.245265 62.060606 930.909091 89.895595 930.909091 124.274719L930.909091 744.573766C930.909091 778.933682 903.139452 806.787879 868.61464 806.787879L476.0356 806.787879C471.966472 804.82394 467.897344 804.82394 463.828216 806.787879 445.517172 749.890777 390.58401 709.199531 327.512592 709.199531 264.441204 709.199531 209.508042 751.925341 191.196967 806.787879 187.127839 806.858504 181.024178 804.82394 174.920487 806.787879L124.103246 806.787879C89.838033 806.787879 62.060606 778.95289 62.060606 744.573766L62.060606 124.274719C62.060606 89.914802 89.984714 62.060606 123.849511 62.060606L869.120186 62.060606ZM536.459636 131.041528 291.418143 504.446293 485.976498 465.203603 373.522711 715.988837 689.663038 358.975302 485.976467 384.865373 536.459636 131.041528Z" p-id="7645" ></path></svg>