<svg t="1665892469743" class="icon" viewBox="0 0 1024 1024" version="1.1" xmlns="http://www.w3.org/2000/svg" p-id="4760" width="200" height="200"><path d="M510.070154 1020.179692c281.718154 0 510.109538-228.391385 510.109538-510.109538C1020.179692 228.430769 791.788308 0 510.030769 0 228.430769 0 0 228.391385 0 510.070154c0 281.718154 228.391385 510.109538 510.070154 510.109538z m-39.384616-273.801846c0-21.700923 17.486769-39.384615 39.384616-39.384615 21.740308 0 39.384615 17.486769 39.384615 39.384615a39.266462 39.266462 0 0 1-39.384615 39.384616 39.266462 39.266462 0 0 1-39.384616-39.384616z m0-472.772923c0-21.661538 17.486769-39.227077 39.384616-39.227077 21.661538 0.118154 39.227077 17.604923 39.384615 39.227077v315.470769a39.227077 39.227077 0 0 1-39.384615 39.148308 39.581538 39.581538 0 0 1-39.384616-39.227077V273.604923z" fill="#ccc" p-id="4761"></path></svg>